# xmcd CD database file
#
# Track frame offsets:
#	150
#	19404
#	31348
#	47260
#	62845
#	78603
#	90422
#	104377
#	118765
#	131576
#	151580
#	164030
#	190391
#
# Disc length: 2784 seconds
#
# Revision: 0
# Processed by: cddbd v1.5.2PL0 Copyright (c) Steve Scherf et al.
# Submitted via: CDex 1.88
#
DISCID=a60ade0d
DTITLE=Old 97s - Blame It On Gravity
DYEAR=2008
DGENRE=Country
TTITLE0=The Fool
TTITLE1=Dance With Me
TTITLE2=No Baby I
TTITLE3=My Two Feet
TTITLE4=Ride
TTITLE5=She Loves the Sunset
TTITLE6=This Beautiful Thing
TTITLE7=I WIll Remain
TTITLE8=Early Morning
TTITLE9=The Easy Way
TTITLE10=Here's to the Halcyon
TTITLE11=Color of a Lonely Heart is Blue
TTITLE12=The One
EXTD=YEAR: 2008
EXTT0=
EXTT1=
EXTT2=
EXTT3=
EXTT4=
EXTT5=
EXTT6=
EXTT7=
EXTT8=
EXTT9=
EXTT10=
EXTT11=
EXTT12=
PLAYORDER=
